<?xml version="1.0" encoding="UTF-8"?>
<?xml-stylesheet type="text/css" href="/sass/style.css"?>
<!DOCTYPE svg PUBLIC "-//W3C//DTD SVG 1.1//EN" "http://www.w3.org/Graphics/SVG/1.1/DTD/svg11.dtd">
<!-- Creator: CorelDRAW 2020 (64-Bit) -->
<svg xmlns="http://www.w3.org/2000/svg" xml:space="preserve" class="logo-svg" width="9.6791mm" height="13.987mm" version="1.1" style="shape-rendering:geometricPrecision; text-rendering:geometricPrecision; image-rendering:optimizeQuality; fill-rule:evenodd; clip-rule:evenodd"
viewBox="0 0 18.63 26.93"
 xmlns:xlink="http://www.w3.org/1999/xlink"
 xmlns:xodm="http://www.corel.com/coreldraw/odm/2003">
 <defs>
  <style type="text/css" class="logo-svg" >
   <![CDATA[
    .fil0 {fill:white}
   ]]>
  </style>
 </defs>
 <g id="Layer_x0020_1">
  <metadata id="CorelCorpID_0Corel-Layer"/>
  <path class="fil0 logo-path" d="M18.63 25.16l-8.71 0 0 1.77 -1.23 0 0 -1.77 -8.69 0 9.32 -25.16 9.32 25.16zm-15.6 -2.03c0.19,0 0.34,0.15 0.34,0.34 0,0.19 -0.15,0.34 -0.34,0.34 -0.19,0 -0.34,-0.15 -0.34,-0.34 0,-0.19 0.15,-0.34 0.34,-0.34zm10.14 -2.64c0.55,0 0.99,0.44 0.99,0.99 0,0.55 -0.44,0.99 -0.99,0.99 -0.55,0 -0.99,-0.44 -0.99,-0.99 0,-0.55 0.44,-0.99 0.99,-0.99zm-6.08 -7.56c0.37,0 0.67,0.3 0.67,0.67 0,0.37 -0.3,0.67 -0.67,0.67 -0.37,0 -0.67,-0.3 -0.67,-0.67 0,-0.37 0.3,-0.67 0.67,-0.67zm2.89 -4.32c0.28,0 0.5,0.22 0.5,0.5 0,0.28 -0.22,0.5 -0.5,0.5 -0.28,0 -0.5,-0.22 -0.5,-0.5 0,-0.28 0.22,-0.5 0.5,-0.5zm-0.94 -3.06c0.13,0 0.23,0.1 0.23,0.23 0,0.13 -0.1,0.23 -0.23,0.23 -0.13,0 -0.23,-0.1 -0.23,-0.23 0,-0.13 0.1,-0.23 0.23,-0.23zm1.84 0.46c-0.27,1.36 -3.04,1.35 -3.84,1.92l-0.19 0.52c0.19,0.5 1.22,1.3 3.77,2.68 1.24,0.67 2.19,1.36 2.87,2.01l-2.6 -7.14zm3.67 10.07c-0.7,1.18 -3.36,1.59 -7.76,0.34 -4.43,-1.25 -5.41,4.74 6.18,8.04l4.65 0 -3.06 -8.38zm-1.67 8.38c-6.35,-1.48 -9.15,-3.97 -9.71,-5.96l-2.17 5.96 11.88 0zm-8.76 -8.56c0.71,-0.43 1.73,-0.59 2.95,-0.31 6.42,1.47 9.8,0.07 3.26,-3.92 -2.1,-1.28 -3.21,-2.14 -3.67,-2.73l-2.54 6.95zm3 -8.23c1.23,-0.45 3.57,-0.57 3.64,-1.97l-1.46 -4 -2.18 5.96z"/>
 </g>
</svg>